
<svg
  version="1.0"
  xmlns="http://www.w3.org/2000/svg"
  xmlns:xlink="http://www.w3.org/1999/xlink"
  width="2400"
  height="1800"
>
  
  <rect
    x="0"
    y="0"
    width="100%"
    height="100%"
    fill="#eeebe0"
    fill-opacity="1"
  ></rect>
  <svg
    version="1.0"
    xmlns="http://www.w3.org/2000/svg"
    xmlns:xlink="http://www.w3.org/1999/xlink"
    x="0"
    y="0"
    width="2400"
    height="1800"
    viewBox="0 0 340.000000 250.000000"
    preserveAspectRatio="xMidYMid meet"
    color-interpolation-filters="sRGB"
  >
    <defs><linearGradient id="92" x1="0%" y1="0%" x2="100%" y2="0%"><stop offset="0%" stop-color="#fa71cd"/> <stop offset="100%" stop-color="#9b59b6"/></linearGradient><linearGradient id="93" x1="0%" y1="0%" x2="100%" y2="0%"><stop offset="0%" stop-color="#f9d423"/> <stop offset="100%" stop-color="#f83600"/></linearGradient><linearGradient id="94" x1="0%" y1="0%" x2="100%" y2="0%"><stop offset="0%" stop-color="#0064d2"/> <stop offset="100%" stop-color="#1cb0f6"/></linearGradient><linearGradient id="95" x1="0%" y1="0%" x2="100%" y2="0%"><stop offset="0%" stop-color="#f00978"/> <stop offset="100%" stop-color="#3f51b1"/></linearGradient><linearGradient id="96" x1="0%" y1="0%" x2="100%" y2="0%"><stop offset="0%" stop-color="#7873f5"/> <stop offset="100%" stop-color="#ec77ab"/></linearGradient><linearGradient id="97" x1="0%" y1="0%" x2="100%" y2="0%"><stop offset="0%" stop-color="#f9d423"/> <stop offset="100%" stop-color="#e14fad"/></linearGradient><linearGradient id="98" x1="0%" y1="0%" x2="100%" y2="0%"><stop offset="0%" stop-color="#009efd"/> <stop offset="100%" stop-color="#2af598"/></linearGradient><linearGradient id="99" x1="0%" y1="0%" x2="100%" y2="0%"><stop offset="0%" stop-color="#ffcc00"/> <stop offset="100%" stop-color="#00b140"/></linearGradient><linearGradient id="100" x1="0%" y1="0%" x2="100%" y2="0%"><stop offset="0%" stop-color="#d51007"/> <stop offset="100%" stop-color="#ff8177"/></linearGradient><linearGradient id="102" x1="0%" y1="0%" x2="100%" y2="0%"><stop offset="0%" stop-color="#a2b6df"/> <stop offset="100%" stop-color="#0c3483"/></linearGradient><linearGradient id="103" x1="0%" y1="0%" x2="100%" y2="0%"><stop offset="0%" stop-color="#7ac5d8"/> <stop offset="100%" stop-color="#eea2a2"/></linearGradient><linearGradient id="104" x1="0%" y1="0%" x2="100%" y2="0%"><stop offset="0%" stop-color="#00ecbc"/> <stop offset="100%" stop-color="#007adf"/></linearGradient><linearGradient id="105" x1="0%" y1="0%" x2="100%" y2="0%"><stop offset="0%" stop-color="#b88746"/> <stop offset="100%" stop-color="#fdf5a6"/></linearGradient></defs> <g fill="#1d0a5b" class="basesvg" transform="translate(55.55500030517578,104.97999954223633)"><g fill-rule="" class="tp-name"><g transform="scale(1)"><g><path d="M20.35-31.11L20.35-31.11 34.39 0 28.53 0 26.13-5.33 26.13-5.33 23.73-10.66 23.73-10.66 17.42-24.62 11.11-10.66 19.2-10.66 21.6-5.33 8.71-5.33 6.31 0 0.44 0 14.49-31.11 20.35-31.11ZM41.73 0L41.73 0 36.39 0 36.39-31.11 41.73-31.11 41.73 0ZM57.01-22.84L57.01-22.84Q59.46-22.84 61.52-21.93 63.59-21.02 65.1-19.42 66.61-17.82 67.45-15.69 68.3-13.55 68.3-11.11L68.3-11.11Q68.3-8.71 67.45-6.58 66.61-4.44 65.1-2.84 63.59-1.24 61.52-0.33 59.46 0.58 57.01 0.58L57.01 0.58Q54.3 0.58 52.26-0.44L52.26-0.44 54.17-5.2Q55.23-4.75 56.57-4.75L56.57-4.75Q57.86-4.75 59.01-5.22 60.17-5.69 61.1-6.62L61.1-6.62Q62.97-8.49 62.97-11.11L62.97-11.11Q62.97-13.78 61.1-15.64L61.1-15.64Q59.14-17.51 56.57-17.51L56.57-17.51Q53.9-17.51 52.03-15.64L52.03-15.64Q50.17-13.78 50.17-11.11L50.17-11.11 50.17-1.78 50.17 8.89 44.84 8.89 44.84-22.26 50.17-22.26 50.17-20.48Q51.46-21.51 53.15-22.17 54.83-22.84 57.01-22.84ZM82.16-22.84L82.16-22.84Q84.34-22.84 86.12-22.02 87.89-21.2 89.16-19.75 90.43-18.31 91.12-16.4 91.8-14.49 91.8-12.31L91.8-12.31 91.8 0 86.47 0 86.47-12.31Q86.47-13.38 86.07-14.31 85.67-15.24 84.92-16L84.92-16Q83.41-17.51 81.27-17.51L81.27-17.51Q79.1-17.51 77.59-16L77.59-16Q76.07-14.49 76.07-12.31L76.07-12.31 76.07 0 70.74 0 70.74-31.11 76.07-31.11 76.07-20.44Q77.27-21.51 78.78-22.17 80.3-22.84 82.16-22.84ZM111.93-22.26L117.27-22.26 117.27 0 111.93 0 111.93-11.11Q111.93-13.78 110.07-15.64L110.07-15.64Q108.2-17.51 105.54-17.51L105.54-17.51Q104.25-17.51 103.07-17.02 101.89-16.53 101-15.64L101-15.64Q99.14-13.78 99.14-11.11L99.14-11.11Q99.14-8.49 101-6.62L101-6.62Q101.89-5.69 103.07-5.22 104.25-4.75 105.54-4.75L105.54-4.75Q106.87-4.75 107.93-5.2L107.93-5.2 109.85-0.44Q107.8 0.58 105.09 0.58L105.09 0.58Q102.65 0.58 100.58-0.33 98.51-1.24 97-2.84 95.49-4.44 94.65-6.58 93.8-8.71 93.8-11.11L93.8-11.11Q93.8-13.55 94.65-15.69 95.49-17.82 97-19.42 98.51-21.02 100.58-21.93 102.65-22.84 105.09-22.84L105.09-22.84Q107.27-22.84 108.96-22.17 110.65-21.51 111.93-20.48L111.93-20.48 111.93-22.26ZM141.75-16.62L141.75-16.62Q143.53-15.37 144.59-13.42 145.66-11.46 145.66-9.15L145.66-9.15 145.66-9.06Q145.66-7.2 144.95-5.53 144.24-3.87 142.99-2.64 141.75-1.42 140.11-0.71 138.46 0 136.6 0L136.6 0 127.75 0 129.89-5.33 136.6-5.33Q138.15-5.33 139.24-6.42 140.33-7.51 140.33-9.06L140.33-9.06 140.33-9.15Q140.33-10.71 139.24-11.8 138.15-12.89 136.6-12.89L136.6-12.89 134.42-12.89 125.71-12.89 125.71-5.33 125.71 0 120.38 0 120.38-12.89 120.38-18.22 120.38-31.11 134.42-31.11Q136.28-31.11 137.95-30.39 139.62-29.68 140.84-28.44 142.06-27.19 142.77-25.55 143.48-23.91 143.48-22.04L143.48-22.04 143.48-21.95Q143.48-20.44 143.02-19.09 142.55-17.73 141.75-16.62ZM138.15-21.95L138.15-22.04Q138.15-23.6 137.06-24.68 135.97-25.77 134.42-25.77L134.42-25.77 125.71-25.77 125.71-18.22 134.42-18.22Q135.97-18.22 137.06-19.31 138.15-20.4 138.15-21.95L138.15-21.95ZM166.46-22.22L172.32-22.22 162.01 0 160.64 3.02Q159.39 5.73 156.9 7.33 154.41 8.93 151.39 8.93L151.39 8.93 149.04 8.93 150.37 3.6 151.66 3.6Q152.95 3.6 154.06 2.89 155.17 2.18 155.7 0.98L155.7 0.98 156.15 0 145.84-22.22 151.7-22.22 159.08-6.31 166.46-22.22ZM184.5-5.33L185.83 0 180.94 0Q179.43 0 178.1-0.58 176.77-1.16 175.79-2.16 174.81-3.15 174.23-4.49 173.66-5.82 173.66-7.33L173.66-7.33 173.66-26.71 178.99-28.04 178.99-19.55 182.1-19.55 183.43-14.22 178.99-14.22 178.99-7.33Q178.99-6.49 179.57-5.91 180.14-5.33 180.94-5.33L180.94-5.33 184.5-5.33ZM208.54-8.44L202.94-8.44 191.3-8.44Q191.74-7.42 192.59-6.62L192.59-6.62Q193.52-5.69 194.67-5.22 195.83-4.75 197.12-4.75L197.12-4.75Q198.94-4.75 200.36-5.6L200.36-5.6 205.92-3.38Q204.32-1.51 202.05-0.47 199.78 0.58 197.12 0.58L197.12 0.58Q194.67 0.58 192.54-0.33 190.41-1.24 188.81-2.84 187.21-4.44 186.3-6.58 185.39-8.71 185.39-11.11L185.39-11.11Q185.39-13.55 186.3-15.69 187.21-17.82 188.81-19.42 190.41-21.02 192.54-21.93 194.67-22.84 197.12-22.84L197.12-22.84Q199.56-22.84 201.69-21.93 203.83-21.02 205.43-19.42 207.03-17.82 207.94-15.69 208.85-13.55 208.85-11.11L208.85-11.11Q208.85-9.69 208.54-8.44L208.54-8.44ZM197.12-17.51L197.12-17.51Q194.54-17.51 192.59-15.64L192.59-15.64Q191.74-14.8 191.3-13.78L191.3-13.78 202.94-13.78Q202.49-14.8 201.65-15.64L201.65-15.64Q199.78-17.51 197.12-17.51ZM229.33-22.17L229.33-22.17 229.33-18.57 218.62-5.33 228.8-5.33 228.8 0 214.31 0 214.31 0 210.4 0 210.4-3.6 221.11-16.89 211.34-16.89 211.34-22.22 225.56-22.22 225.56-22.17 229.33-22.17Z" transform="translate(-0.4399999976158142, 31.110000610351562)"/></g> </g></g> </g><defs v-gra="od"/>
  </svg>
</svg>


